<svg xmlns="http://www.w3.org/2000/svg" width="24" height="24" viewBox="0 0 24 24">
    <g data-name="그룹 68244">
        <g data-name="icon 01 search">
            <path data-name="사각형 507" style="fill:none" d="M0 0h24v24H0z"/>
        </g>
        <g data-name="그룹 68244">
            <path data-name="패스 76582" d="M-245.277 1073.771a1 1 0 0 1-.707-.293 1 1 0 0 1 0-1.415l14.081-14.082a1 1 0 0 1 1.414 0 1 1 0 0 1 0 1.415l-14.081 14.082a1 1 0 0 1-.707.293z" style="fill:#000" transform="translate(250.236 -1053.729)"/>
            <path data-name="패스 76583" d="M-231.2 1073.771a1 1 0 0 1-.707-.293l-14.081-14.082a1 1 0 0 1 0-1.415 1 1 0 0 1 1.414 0l14.081 14.082a1 1 0 0 1 0 1.415 1 1 0 0 1-.707.293z" style="fill:#000" transform="translate(250.236 -1053.729)"/>
        </g>
    </g>
</svg>
