<svg xmlns="http://www.w3.org/2000/svg" width="68" height="32" viewBox="0 0 68 32">
    <defs>
        <clipPath id="9w0n7xd4ua">
            <path data-name="사각형 43161" style="fill:none;stroke:#707070" d="M0 0h68v32H0z"/>
        </clipPath>
    </defs>
    <g data-name="마스크 그룹 21" style="clip-path:url(#9w0n7xd4ua)">
        <g data-name="그룹 63798">
            <g data-name="그룹 63796">
                <path data-name="패스 70748" d="M418.065 258.554a1.464 1.464 0 0 1-.523-.1 1.431 1.431 0 0 1-.832-1.858l8.049-20.6a1.458 1.458 0 0 1 1.879-.822 1.43 1.43 0 0 1 .832 1.857l-8.049 20.6a1.454 1.454 0 0 1-1.356.923z" transform="translate(-404.453 -235.08)" style="fill:#ffffff"/>
                <path data-name="패스 70749" d="M475.739 262.247a8.45 8.45 0 0 1-2.94-.556 6.627 6.627 0 0 1-3.93-3.467 9.432 9.432 0 0 1-.032-6.591 13.7 13.7 0 0 1 12.2-7.932 1.436 1.436 0 1 1 .15 2.869 10.831 10.831 0 0 0-9.645 6.107c-.176.467-1.695 4.86 2.272 6.325a4.947 4.947 0 0 0 6.245-2.471L488.081 236a1.459 1.459 0 0 1 1.879-.822 1.43 1.43 0 0 1 .832 1.857l-8.1 20.717a8.088 8.088 0 0 1-6.953 4.495z" transform="translate(-437.319 -235.08)" style="fill:#ffffff"/>
                <path data-name="패스 70750" d="M388.821 267a6.018 6.018 0 0 1-3.829-1.293 5.419 5.419 0 0 1-1.836-4.066 4.646 4.646 0 0 1 1.262-3.535c1.861-1.947 5.053-2.027 5.411-2.029h7.818c4.37 0 10.541-.919 13.656-8.866 1.382-3.526.863-6.094-.083-7.321a5.187 5.187 0 0 0-3.765-1.94H399.1a1.436 1.436 0 1 1 0-2.873h8.371a8.173 8.173 0 0 1 6.066 3.071c1.843 2.39 2.022 6.166.481 10.1-4.2 10.7-13.356 10.7-16.367 10.7h-.232c-3.3 7.625-7.217 8.07-8.189 8.036-.101.016-.239.016-.409.016zm1.018-8.05a5.394 5.394 0 0 0-3.313 1.134 1.793 1.793 0 0 0-.467 1.415 2.675 2.675 0 0 0 .8 2.01 3.323 3.323 0 0 0 2.183.609l.216-.02.06.014c.309-.026 2.548-.38 4.9-5.162z" transform="translate(-383.149 -235.081)" style="fill:#ffffff"/>
                <path data-name="패스 70751" d="M519.624 237.954h-11.752a1.436 1.436 0 1 1 0-2.873h11.752a1.436 1.436 0 1 1 0 2.873z" transform="translate(-461.63 -235.081)" style="fill:#ffffff"/>
            </g>
            <g data-name="그룹 63797">
                <path data-name="패스 70752" d="M544.128 271.231a1.457 1.457 0 0 1-1.27-.735l-5.258-9.28a1.428 1.428 0 0 1 .558-1.955 1.463 1.463 0 0 1 1.978.552l5.259 9.28a1.428 1.428 0 0 1-.558 1.955 1.46 1.46 0 0 1-.709.183z" transform="translate(-481.363 -250.462)" style="fill:#ffffff"/>
                <path data-name="패스 70753" d="M532.666 271.231a1.46 1.46 0 0 1-1.006-.4 1.425 1.425 0 0 1-.042-2.031l9.015-9.279a1.465 1.465 0 0 1 2.055-.042 1.425 1.425 0 0 1 .042 2.031l-9.015 9.279a1.457 1.457 0 0 1-1.049.442z" transform="translate(-477.415 -250.462)" style="fill:#ffffff"/>
            </g>
        </g>
    </g>
</svg>
